<svg xmlns="http://www.w3.org/2000/svg" shape-rendering="crispEdges" height="1024" width="1024" viewBox="0 0 37 37" class="_d-none"><path fill="#FFFFFF" d="M0,0 h37v37H0z"/><path fill="#000000" d="M4 4h7v1H4zM14 4h1v1H14zM16 4h4v1H16zM21 4h3v1H21zM26,4 h7v1H26zM4 5h1v1H4zM10 5h1v1H10zM12 5h1v1H12zM14 5h1v1H14zM17 5h5v1H17zM24 5h1v1H24zM26 5h1v1H26zM32,5 h1v1H32zM4 6h1v1H4zM6 6h3v1H6zM10 6h1v1H10zM16 6h2v1H16zM19 6h1v1H19zM24 6h1v1H24zM26 6h1v1H26zM28 6h3v1H28zM32,6 h1v1H32zM4 7h1v1H4zM6 7h3v1H6zM10 7h1v1H10zM12 7h3v1H12zM16 7h1v1H16zM18 7h2v1H18zM23 7h1v1H23zM26 7h1v1H26zM28 7h3v1H28zM32,7 h1v1H32zM4 8h1v1H4zM6 8h3v1H6zM10 8h1v1H10zM13 8h1v1H13zM19 8h2v1H19zM23 8h2v1H23zM26 8h1v1H26zM28 8h3v1H28zM32,8 h1v1H32zM4 9h1v1H4zM10 9h1v1H10zM12 9h2v1H12zM15 9h2v1H15zM21 9h2v1H21zM24 9h1v1H24zM26 9h1v1H26zM32,9 h1v1H32zM4 10h7v1H4zM12 10h1v1H12zM14 10h1v1H14zM16 10h1v1H16zM18 10h1v1H18zM20 10h1v1H20zM22 10h1v1H22zM24 10h1v1H24zM26,10 h7v1H26zM13 11h3v1H13zM18 11h1v1H18zM20 11h1v1H20zM23 11h2v1H23zM4 12h5v1H4zM10 12h4v1H10zM15 12h1v1H15zM21 12h3v1H21zM25 12h1v1H25zM27 12h1v1H27zM29 12h1v1H29zM31 12h1v1H31zM4 13h2v1H4zM7 13h3v1H7zM11 13h2v1H11zM14 13h1v1H14zM16 13h4v1H16zM23 13h6v1H23zM32,13 h1v1H32zM5 14h3v1H5zM9 14h3v1H9zM14 14h1v1H14zM17 14h3v1H17zM22 14h1v1H22zM24 14h1v1H24zM26 14h1v1H26zM28 14h1v1H28zM4 15h2v1H4zM7 15h3v1H7zM11 15h1v1H11zM16 15h2v1H16zM19 15h1v1H19zM23 15h1v1H23zM26 15h1v1H26zM29 15h1v1H29zM31 15h1v1H31zM4 16h2v1H4zM9 16h6v1H9zM16 16h1v1H16zM18 16h1v1H18zM21 16h2v1H21zM29 16h2v1H29zM4 17h1v1H4zM6 17h4v1H6zM13 17h1v1H13zM19 17h2v1H19zM23 17h2v1H23zM26 17h3v1H26zM32,17 h1v1H32zM4 18h1v1H4zM8 18h3v1H8zM15 18h2v1H15zM19 18h1v1H19zM22 18h1v1H22zM29 18h2v1H29zM6 19h1v1H6zM8 19h1v1H8zM11 19h5v1H11zM18 19h1v1H18zM22 19h4v1H22zM27 19h1v1H27zM31 19h1v1H31zM4 20h2v1H4zM7 20h2v1H7zM10 20h1v1H10zM12 20h4v1H12zM19 20h5v1H19zM29 20h2v1H29zM4 21h1v1H4zM6 21h1v1H6zM11 21h1v1H11zM16 21h3v1H16zM23 21h1v1H23zM25 21h2v1H25zM28 21h1v1H28zM30 21h1v1H30zM32,21 h1v1H32zM4 22h1v1H4zM8 22h4v1H8zM13 22h1v1H13zM17 22h3v1H17zM22 22h1v1H22zM26 22h2v1H26zM30 22h1v1H30zM4 23h1v1H4zM6 23h1v1H6zM8 23h1v1H8zM12 23h3v1H12zM16 23h2v1H16zM24 23h1v1H24zM27 23h1v1H27zM31 23h1v1H31zM4 24h1v1H4zM6 24h1v1H6zM9 24h6v1H9zM16 24h1v1H16zM18 24h5v1H18zM24 24h5v1H24zM30,24 h3v1H30zM12 25h1v1H12zM23 25h2v1H23zM28,25 h5v1H28zM4 26h7v1H4zM12 26h2v1H12zM15 26h2v1H15zM19 26h1v1H19zM22 26h3v1H22zM26 26h1v1H26zM28 26h3v1H28zM4 27h1v1H4zM10 27h1v1H10zM13 27h3v1H13zM18 27h1v1H18zM22 27h3v1H22zM28 27h1v1H28zM31,27 h2v1H31zM4 28h1v1H4zM6 28h3v1H6zM10 28h1v1H10zM12 28h2v1H12zM15 28h1v1H15zM19 28h4v1H19zM24 28h5v1H24zM30 28h2v1H30zM4 29h1v1H4zM6 29h3v1H6zM10 29h1v1H10zM12 29h3v1H12zM16 29h3v1H16zM24 29h1v1H24zM29,29 h4v1H29zM4 30h1v1H4zM6 30h3v1H6zM10 30h1v1H10zM12 30h1v1H12zM14 30h1v1H14zM17 30h3v1H17zM21 30h1v1H21zM25 30h7v1H25zM4 31h1v1H4zM10 31h1v1H10zM12 31h1v1H12zM14 31h1v1H14zM16 31h2v1H16zM19 31h1v1H19zM22 31h4v1H22zM27 31h1v1H27zM29 31h1v1H29zM31 31h1v1H31zM4 32h7v1H4zM12 32h3v1H12zM16 32h1v1H16zM18 32h1v1H18zM20 32h4v1H20zM27 32h2v1H27zM30 32h1v1H30z"/></svg>